<svg xmlns="http://www.w3.org/2000/svg" xmlns:xlink="http://www.w3.org/1999/xlink" xml:space="preserve" viewBox="0 0 197.53699 32.041016"><defs><linearGradient id="b"><stop offset="0" stop-color="#33a7dd"/><stop offset="1" stop-color="#122339"/></linearGradient><linearGradient id="c"><stop offset="0" stop-color="#38bdf8"/><stop offset="1" stop-color="#152e47"/></linearGradient><linearGradient id="a"><stop offset="0" stop-color="#0f172a"/><stop offset="1" stop-color="#38bdf8"/></linearGradient><linearGradient xlink:href="#a" id="d" x1="13.029295" x2="44.778091" y1="16.200195" y2="16.200195" gradientTransform="translate(-2.500295)" gradientUnits="userSpaceOnUse"/><linearGradient xlink:href="#b" id="g" x1="3.0638039" x2="8.5443993" y1="6.7831321" y2="6.7831321" gradientTransform="rotate(-23.326858 25.6637767 -16.43508737) scale(2.18981869)" gradientUnits="userSpaceOnUse"/><linearGradient xlink:href="#c" id="e" x1="26.25" x2="50.033203" y1="7.9404297" y2="7.9404297" gradientTransform="translate(-2.500295)" gradientUnits="userSpaceOnUse"/><linearGradient xlink:href="#c" id="f" x1="26.25" x2="50.033203" y1="7.9404297" y2="7.9404297" gradientTransform="translate(-2.500295)" gradientUnits="userSpaceOnUse"/></defs><path fill="url(#d)" d="m26.378611.1796875-4.359375 4.3867187-2.585937-2.90625c-1.354972.6396172-2.500323 1.4008634-3.490235 2.2128907-.764769.6275651-1.434793 1.2878449-2.009765 1.9589843-.04506.052618-.100551.1035355-.144532.15625-.330336.3959618-.61085.7940564-.882812 1.1894532-.04372.063201-.09665.1264147-.140625.1894531-.02287.03428-.04005.067343-.0625.1015625-.284874.4346262-.539601.863807-.761719 1.28125.04335-.085358.08723-.1719755.13086-.2578125-.08461.1522782-.161489.3020417-.238282.4511719-.0063.013527-.01245.027165-.01953.041016-.01801.036503-.04125.074798-.06055.1113281-.696564 1.3880855-1.061856 2.6149925-1.224609 3.4003905.905885-.927767 1.846531-1.84617 2.763672-2.5449217.02256-.01728.04584-.037787.06836-.054687.05048-.037866.100386-.069582.150391-.1035156.227211-.1643528.451403-.3099958.673828-.4394532.06214-.037723.125924-.086114.1875-.1191406.0089-.00476.01844-.00897.02734-.013672-.02456.016039-.04761.038317-.07227.054687.216748-.1186197.432671-.2358695.642578-.3125.111108-.040562.221278-.072288.330078-.099609.02971-.00754.06039-.020966.08984-.027344.01709-.00371.03375-.00642.05078-.00977.391284-.077351.76812-.062137 1.119141.072266.173692.066712.342458.163445.503906.2910156.05788.045848.115709.096193.171875.1503907 0 0 .09375 9.0225278.09375 12.7226558 0 4.978833-4.71875 8.685547-4.71875 8.685547 2.594695-.460597 5.712007-1.386702 9.019531-4.632813.298884-.295816.583001-.606434.84961-.93164 1.416883 1.085693 3.253906.759765 3.253906.759765-.99353-.54393-1.984361-2.133222-1.984361-3.449214V9.5722656s.133584-.1138569.341797-.2773437c.03549-.02793.07476-.052917.115234-.083984.171331-.1317836.353748-.2724839.59961-.4375.04534-.030431.101038-.061018.148437-.091797.111494-.072595.219085-.1370572.339844-.2089843.06742-.040165.125756-.08203.195312-.1210938.02659-.014934.05514-.028242.08203-.042969.06125-.033545.122958-.06352.185546-.095703.125538-.064612.25158-.1248328.38086-.1816406.29227-.1283261.58961-.234594.882812-.296875.05899-.012558.117362-.024201.175782-.033203.02936-.00451.05872-.010118.08789-.013672.100379-.012285.199359-.019528.296875-.019531.76345-.00634 1.482282.3579155 1.929688.9765626.131777.1725089.240468.3602748.324218.5605468V25.173828c.491304-.407956 2.158204-.744529 2.158204 2.023438 0 1.71737-1.23688 3.766664-3.44336 5.023437 3.028335-.461864 5.864976-1.771101 8.181641-3.775391 3.562365-3.078409 5.590402-7.56742 5.544922-12.27539 0 0-1.61496 5.036971-3.632813 5.501953-1.263595.332499-2.490265-.645272-2.447265-1.951172V7.8886719c0-1.197552.771306-1.4604757 1.486328-1.4472657.484057.034458.962602.1247463 1.425781.2695313-2.989095-4.0473768-7.699431-6.463539-12.730469-6.53125z" transform="translate(-10.529 -.1796875)"/><path fill="url(#e)" d="M27.581736 7.6679687c-.09751.0000039-.196502.00725-.296875.019531-.02917.00355-.05853.00916-.08789.013672-.05842.009-.116792.020645-.175782.033203-.150037.031871-.3002.074984-.451172.1269531-.144054.049588-.288931.1072631-.43164.1699219-.12928.056808-.255322.1170286-.38086.1816406-.06161.031682-.123283.060836-.183593.09375l-.002.00195c-.09633.052758-.185186.1091704-.277344.1640625-.120759.071927-.22835.1363893-.339844.2089843-.294874.191996-.548265.3759431-.748047.5292969-.04047.031067-.07974.056054-.115234.083984-.208119.1634946-.34175.2773476-.34175.2773476v3.9668284c.134573-.242253.908203-3.000011 3.271484-2.916031C29.326268 10.704975 29.835642 12.5 29.835642 12.5V9.2050781c-.08375-.200272-.192441-.3880379-.324218-.5605468-.447406-.6186471-1.166238-.9829026-1.929688-.9765626Z" transform="translate(-10.529 -.1796875)"/><path fill="url(#f)" d="M39.10908 6.7109375c-.463179-.144785-.941724-.2350733-1.425781-.2695313-.715022-.01321-1.486328.2497137-1.486328 1.4472657V12.5c6.080628 0 11.335937-9.1191406 11.335937-9.1191406S42.27698 7.7739813 39.10908 6.7109375z" transform="translate(-10.529 -.1796875)"/><path fill="url(#g)" d="M29.835638 11.232389s-1.017629-1.008379-3.034737-.753485c-1.558841.199329-2.942828.990523-3.852247 2.56582-.430572.748268-.558584 1.652036-.474845 2.414027.215377 1.981812 1.990054 3.063188 2.734068 3.405876l1.600971.700226c.324595.132913 1.127256.498909 1.234236 1.475168.117536 1.061422-.751498 2.1539-2.06189 2.29656-.586252.06217-1.495964-.0016-1.562015-.614225-.02806-.251441.05908-.48714.06353-.715218.0059-.198792-.0093-.338024-.01694-.420715-.08717-.782944-.76296-1.556903-1.600658-1.466687-.781366.08649-1.415379.558024-1.306307 1.565142.125159 1.144113 1.397138 2.767487 4.32953 2.450598 3.433918-.376156 5.285864-3.133564 4.722246-5.441824-.350975-1.446722-1.39381-2.187634-3.064881-2.994075l-1.340709-.612466c-.789471-.31374-1.380712-1.169022-1.12236-2.134603.218355-.815627.792467-1.369728 2.044183-1.548764 1.828459-.263262 2.708825 1.096243 2.708825 1.096243.946828-.64298 0-1.267598 0-1.267598z" transform="translate(-10.529 -.1796875)"/><path fill-rule="evenodd" d="M187.315 14.7643125c0 3.458 10.222 1.368 10.222 8.398 0 3.8-3.306 5.852-7.41 5.852-3.8 0-6.536-1.71-7.752-4.446l3.534-2.052c.608 1.71 2.128 2.736 4.218 2.736 1.824 0 3.23-.608 3.23-2.128 0-3.382-10.222-1.482-10.222-8.284 0-3.572 3.078-5.814 6.954-5.814 3.116 0 5.7 1.444 7.03 3.952l-3.458 1.938c-.684-1.482-2.014-2.166-3.572-2.166-1.482 0-2.774.646-2.774 2.014zm-17.518 0c0 3.458 10.222 1.368 10.222 8.398 0 3.8-3.306 5.852-7.41 5.852-3.8 0-6.536-1.71-7.752-4.446l3.534-2.052c.608 1.71 2.128 2.736 4.218 2.736 1.824 0 3.23-.608 3.23-2.128 0-3.382-10.222-1.482-10.222-8.284 0-3.572 3.078-5.814 6.954-5.814 3.116 0 5.7 1.444 7.03 3.952l-3.458 1.938c-.684-1.482-2.014-2.166-3.572-2.166-1.482 0-2.774.646-2.774 2.014zm-15.314 14.25c-5.738 0-10.032-4.37-10.032-9.994 0-5.662 4.294-9.994 10.032-9.994 3.724 0 6.954 1.938 8.474 4.902l-3.534 2.052c-.836-1.786-2.698-2.926-4.978-2.926-3.344 0-5.89 2.546-5.89 5.966 0 3.42 2.546 5.966 5.89 5.966 2.28 0 4.142-1.178 5.054-2.926l3.534 2.014c-1.596 3.002-4.826 4.94-8.55 4.94zm-22.672-14.25c0 3.458 10.222 1.368 10.222 8.398 0 3.8-3.306 5.852-7.41 5.852-3.8 0-6.536-1.71-7.752-4.446l3.534-2.052c.608 1.71 2.128 2.736 4.218 2.736 1.824 0 3.23-.608 3.23-2.128 0-3.382-10.222-1.482-10.222-8.284 0-3.572 3.078-5.814 6.954-5.814 3.116 0 5.7 1.444 7.03 3.952l-3.458 1.938c-.684-1.482-2.014-2.166-3.572-2.166-1.482 0-2.774.646-2.774 2.014zm-17.938 13.756c-4.256 0-7.296-2.888-7.296-7.828v-11.666h4.104v11.248c0 2.888 1.672 4.408 4.256 4.408 2.698 0 4.826-1.596 4.826-5.472v-10.184h4.104v19h-4.104v-2.432c-1.254 1.976-3.306 2.926-5.89 2.926zm-14.464 0v-27.74h4.104v27.74Zm-8.854 0v-19h4.104v19zm2.052-21.85c-1.444 0-2.622-1.216-2.622-2.622a2.627 2.627 0 0 1 2.622-2.622 2.627 2.627 0 0 1 2.622 2.622c0 1.406-1.178 2.622-2.622 2.622zM75.013578 9.0253906c-5.168 0-9.46289 4.3321409-9.46289 9.9941409 0 5.624 4.29489 9.99414 9.46289 9.99414 2.964 0 5.206391-1.214515 6.650391-3.228515v2.734375h4.103511V9.5195313h-4.103511v2.6992192c-1.444-1.976001-3.686391-3.1933599-6.650391-3.1933599zm.644531 3.9140629c3.42 0 6.00586 2.546078 6.00586 6.080078 0 3.534-2.58586 6.080078-6.00586 6.080078-3.42 0-6.003906-2.546078-6.003906-6.080078 0-3.534 2.583906-6.080078 6.003906-6.080078zM56.455 9.0263125c4.256 0 7.296 2.888 7.296 7.828v11.666h-4.104v-11.248c0-2.888-1.672-4.408-4.256-4.408-2.698 0-4.826 1.596-4.826 5.472v10.184h-4.104v-19h4.104v2.432c1.254-1.976 3.306-2.926 5.89-2.926z" clip-rule="evenodd"/></svg>